<mxfile host="app.diagrams.net" modified="2021-05-25T10:48:02.180Z" agent="5.0 (Windows NT 10.0; Win64; x64) AppleWebKit/537.36 (KHTML, like Gecko) Chrome/90.0.4430.212 Safari/537.36" etag="z2SdUNDgXlCFX5K-jdP4" version="14.7.0" type="github">
  <diagram id="R2lEEEUBdFMjLlhIrx00" name="Page-1">
    <mxGraphModel dx="1562" dy="762" grid="1" gridSize="10" guides="1" tooltips="1" connect="1" arrows="1" fold="1" page="1" pageScale="1" pageWidth="1100" pageHeight="1700" math="0" shadow="0" extFonts="Permanent Marker^https://fonts.googleapis.com/css?family=Permanent+Marker">
      <root>
        <mxCell id="0" />
        <mxCell id="1" parent="0" />
        <mxCell id="TNJj3UPiWr4yUAPDPL0N-1" value="任务" style="rounded=0;whiteSpace=wrap;html=1;" vertex="1" parent="1">
          <mxGeometry x="140" y="440" width="100" height="40" as="geometry" />
        </mxCell>
        <mxCell id="TNJj3UPiWr4yUAPDPL0N-3" value="Department" style="rounded=0;whiteSpace=wrap;html=1;" vertex="1" parent="1">
          <mxGeometry x="785" y="440" width="100" height="40" as="geometry" />
        </mxCell>
        <mxCell id="TNJj3UPiWr4yUAPDPL0N-4" value="MonitorEvent" style="rounded=0;whiteSpace=wrap;html=1;" vertex="1" parent="1">
          <mxGeometry x="140" y="795" width="100" height="40" as="geometry" />
        </mxCell>
        <mxCell id="TNJj3UPiWr4yUAPDPL0N-5" value="ContingencyEvent" style="rounded=0;whiteSpace=wrap;html=1;" vertex="1" parent="1">
          <mxGeometry x="140" y="180" width="100" height="40" as="geometry" />
        </mxCell>
        <mxCell id="TNJj3UPiWr4yUAPDPL0N-6" value="BusinessSystem" style="rounded=0;whiteSpace=wrap;html=1;" vertex="1" parent="1">
          <mxGeometry x="785" y="180" width="100" height="40" as="geometry" />
        </mxCell>
        <mxCell id="TNJj3UPiWr4yUAPDPL0N-7" value="User" style="rounded=0;whiteSpace=wrap;html=1;" vertex="1" parent="1">
          <mxGeometry x="785" y="795" width="100" height="40" as="geometry" />
        </mxCell>
        <mxCell id="TNJj3UPiWr4yUAPDPL0N-13" style="edgeStyle=orthogonalEdgeStyle;rounded=0;orthogonalLoop=1;jettySize=auto;html=1;exitX=0.5;exitY=0;exitDx=0;exitDy=0;" edge="1" parent="1" source="TNJj3UPiWr4yUAPDPL0N-8">
          <mxGeometry relative="1" as="geometry">
            <mxPoint x="490" y="390" as="targetPoint" />
          </mxGeometry>
        </mxCell>
        <mxCell id="TNJj3UPiWr4yUAPDPL0N-8" value="属于" style="rhombus;whiteSpace=wrap;html=1;" vertex="1" parent="1">
          <mxGeometry x="450" y="430" width="80" height="60" as="geometry" />
        </mxCell>
        <mxCell id="TNJj3UPiWr4yUAPDPL0N-11" value="n" style="text;html=1;align=center;verticalAlign=middle;resizable=0;points=[];autosize=1;strokeColor=none;" vertex="1" parent="1">
          <mxGeometry x="240" y="440" width="20" height="20" as="geometry" />
        </mxCell>
        <mxCell id="TNJj3UPiWr4yUAPDPL0N-12" value="1" style="text;html=1;align=center;verticalAlign=middle;resizable=0;points=[];autosize=1;strokeColor=none;" vertex="1" parent="1">
          <mxGeometry x="755" y="440" width="20" height="20" as="geometry" />
        </mxCell>
        <mxCell id="TNJj3UPiWr4yUAPDPL0N-14" value="群组名" style="ellipse;whiteSpace=wrap;html=1;" vertex="1" parent="1">
          <mxGeometry x="445" y="340" width="90" height="50" as="geometry" />
        </mxCell>
        <mxCell id="TNJj3UPiWr4yUAPDPL0N-15" value="" style="endArrow=none;html=1;entryX=0.5;entryY=1;entryDx=0;entryDy=0;exitX=0.5;exitY=0;exitDx=0;exitDy=0;" edge="1" parent="1" source="TNJj3UPiWr4yUAPDPL0N-4" target="TNJj3UPiWr4yUAPDPL0N-24">
          <mxGeometry width="50" height="50" relative="1" as="geometry">
            <mxPoint x="-30" y="785" as="sourcePoint" />
            <mxPoint x="20" y="735" as="targetPoint" />
          </mxGeometry>
        </mxCell>
        <mxCell id="TNJj3UPiWr4yUAPDPL0N-16" value="" style="endArrow=none;html=1;entryX=0;entryY=0.5;entryDx=0;entryDy=0;exitX=1;exitY=0.5;exitDx=0;exitDy=0;" edge="1" parent="1" source="TNJj3UPiWr4yUAPDPL0N-1" target="TNJj3UPiWr4yUAPDPL0N-8">
          <mxGeometry width="50" height="50" relative="1" as="geometry">
            <mxPoint x="390" y="560" as="sourcePoint" />
            <mxPoint x="440" y="510" as="targetPoint" />
          </mxGeometry>
        </mxCell>
        <mxCell id="TNJj3UPiWr4yUAPDPL0N-17" value="" style="endArrow=none;html=1;entryX=1;entryY=0.5;entryDx=0;entryDy=0;exitX=0;exitY=0.5;exitDx=0;exitDy=0;" edge="1" parent="1" source="TNJj3UPiWr4yUAPDPL0N-3" target="TNJj3UPiWr4yUAPDPL0N-8">
          <mxGeometry width="50" height="50" relative="1" as="geometry">
            <mxPoint x="410" y="470" as="sourcePoint" />
            <mxPoint x="460" y="470" as="targetPoint" />
          </mxGeometry>
        </mxCell>
        <mxCell id="TNJj3UPiWr4yUAPDPL0N-18" value="" style="endArrow=none;html=1;exitX=0.5;exitY=0;exitDx=0;exitDy=0;entryX=0.5;entryY=1;entryDx=0;entryDy=0;" edge="1" parent="1" source="TNJj3UPiWr4yUAPDPL0N-1" target="TNJj3UPiWr4yUAPDPL0N-20">
          <mxGeometry width="50" height="50" relative="1" as="geometry">
            <mxPoint x="270" y="430" as="sourcePoint" />
            <mxPoint x="320" y="380" as="targetPoint" />
          </mxGeometry>
        </mxCell>
        <mxCell id="TNJj3UPiWr4yUAPDPL0N-20" value="拥有" style="rhombus;whiteSpace=wrap;html=1;" vertex="1" parent="1">
          <mxGeometry x="150" y="300" width="80" height="60" as="geometry" />
        </mxCell>
        <mxCell id="TNJj3UPiWr4yUAPDPL0N-21" value="" style="endArrow=none;html=1;entryX=0.5;entryY=1;entryDx=0;entryDy=0;exitX=0.5;exitY=0;exitDx=0;exitDy=0;" edge="1" parent="1" source="TNJj3UPiWr4yUAPDPL0N-20" target="TNJj3UPiWr4yUAPDPL0N-5">
          <mxGeometry width="50" height="50" relative="1" as="geometry">
            <mxPoint x="-40" y="390" as="sourcePoint" />
            <mxPoint x="10" y="340" as="targetPoint" />
          </mxGeometry>
        </mxCell>
        <mxCell id="TNJj3UPiWr4yUAPDPL0N-22" value="n" style="text;html=1;align=center;verticalAlign=middle;resizable=0;points=[];autosize=1;strokeColor=none;" vertex="1" parent="1">
          <mxGeometry x="170" y="220" width="20" height="20" as="geometry" />
        </mxCell>
        <mxCell id="TNJj3UPiWr4yUAPDPL0N-23" value="1" style="text;html=1;align=center;verticalAlign=middle;resizable=0;points=[];autosize=1;strokeColor=none;" vertex="1" parent="1">
          <mxGeometry x="170" y="390" width="20" height="20" as="geometry" />
        </mxCell>
        <mxCell id="TNJj3UPiWr4yUAPDPL0N-24" value="拥有" style="rhombus;whiteSpace=wrap;html=1;" vertex="1" parent="1">
          <mxGeometry x="150" y="695" width="80" height="60" as="geometry" />
        </mxCell>
        <mxCell id="TNJj3UPiWr4yUAPDPL0N-25" value="" style="endArrow=none;html=1;entryX=0.5;entryY=1;entryDx=0;entryDy=0;exitX=0.5;exitY=0;exitDx=0;exitDy=0;" edge="1" parent="1" source="TNJj3UPiWr4yUAPDPL0N-24" target="TNJj3UPiWr4yUAPDPL0N-1">
          <mxGeometry width="50" height="50" relative="1" as="geometry">
            <mxPoint x="-30" y="520" as="sourcePoint" />
            <mxPoint x="20" y="470" as="targetPoint" />
          </mxGeometry>
        </mxCell>
        <mxCell id="TNJj3UPiWr4yUAPDPL0N-26" value="1" style="text;html=1;align=center;verticalAlign=middle;resizable=0;points=[];autosize=1;strokeColor=none;" vertex="1" parent="1">
          <mxGeometry x="170" y="480" width="20" height="20" as="geometry" />
        </mxCell>
        <mxCell id="TNJj3UPiWr4yUAPDPL0N-27" value="n" style="text;html=1;align=center;verticalAlign=middle;resizable=0;points=[];autosize=1;strokeColor=none;" vertex="1" parent="1">
          <mxGeometry x="170" y="775" width="20" height="20" as="geometry" />
        </mxCell>
        <mxCell id="TNJj3UPiWr4yUAPDPL0N-36" style="edgeStyle=orthogonalEdgeStyle;rounded=0;orthogonalLoop=1;jettySize=auto;html=1;exitX=1;exitY=0.5;exitDx=0;exitDy=0;" edge="1" parent="1" source="TNJj3UPiWr4yUAPDPL0N-28">
          <mxGeometry relative="1" as="geometry">
            <mxPoint x="954.9999999999998" y="329.52941176470586" as="targetPoint" />
          </mxGeometry>
        </mxCell>
        <mxCell id="TNJj3UPiWr4yUAPDPL0N-28" value="管理" style="rhombus;whiteSpace=wrap;html=1;" vertex="1" parent="1">
          <mxGeometry x="795" y="300" width="80" height="60" as="geometry" />
        </mxCell>
        <mxCell id="TNJj3UPiWr4yUAPDPL0N-29" value="" style="endArrow=none;html=1;exitX=0.5;exitY=0;exitDx=0;exitDy=0;entryX=0.5;entryY=1;entryDx=0;entryDy=0;" edge="1" parent="1" source="TNJj3UPiWr4yUAPDPL0N-3" target="TNJj3UPiWr4yUAPDPL0N-28">
          <mxGeometry width="50" height="50" relative="1" as="geometry">
            <mxPoint x="925" y="380" as="sourcePoint" />
            <mxPoint x="975" y="330" as="targetPoint" />
          </mxGeometry>
        </mxCell>
        <mxCell id="TNJj3UPiWr4yUAPDPL0N-30" value="" style="endArrow=none;html=1;exitX=0.5;exitY=0;exitDx=0;exitDy=0;entryX=0.5;entryY=1;entryDx=0;entryDy=0;" edge="1" parent="1" source="TNJj3UPiWr4yUAPDPL0N-28" target="TNJj3UPiWr4yUAPDPL0N-6">
          <mxGeometry width="50" height="50" relative="1" as="geometry">
            <mxPoint x="895" y="310" as="sourcePoint" />
            <mxPoint x="945" y="260" as="targetPoint" />
          </mxGeometry>
        </mxCell>
        <mxCell id="TNJj3UPiWr4yUAPDPL0N-31" value="" style="endArrow=none;html=1;entryX=0;entryY=0.5;entryDx=0;entryDy=0;exitX=1;exitY=0.5;exitDx=0;exitDy=0;" edge="1" parent="1" source="TNJj3UPiWr4yUAPDPL0N-5" target="TNJj3UPiWr4yUAPDPL0N-43">
          <mxGeometry width="50" height="50" relative="1" as="geometry">
            <mxPoint x="260" y="170" as="sourcePoint" />
            <mxPoint x="310" y="120" as="targetPoint" />
          </mxGeometry>
        </mxCell>
        <mxCell id="TNJj3UPiWr4yUAPDPL0N-32" value="n" style="text;html=1;align=center;verticalAlign=middle;resizable=0;points=[];autosize=1;strokeColor=none;" vertex="1" parent="1">
          <mxGeometry x="795" y="220" width="20" height="20" as="geometry" />
        </mxCell>
        <mxCell id="TNJj3UPiWr4yUAPDPL0N-33" value="1" style="text;html=1;align=center;verticalAlign=middle;resizable=0;points=[];autosize=1;strokeColor=none;" vertex="1" parent="1">
          <mxGeometry x="815" y="390" width="20" height="20" as="geometry" />
        </mxCell>
        <mxCell id="TNJj3UPiWr4yUAPDPL0N-35" value="群组Id" style="ellipse;whiteSpace=wrap;html=1;" vertex="1" parent="1">
          <mxGeometry x="965" y="305" width="90" height="50" as="geometry" />
        </mxCell>
        <mxCell id="TNJj3UPiWr4yUAPDPL0N-37" value="" style="endArrow=none;html=1;entryX=0.5;entryY=1;entryDx=0;entryDy=0;exitX=0.5;exitY=0;exitDx=0;exitDy=0;" edge="1" parent="1" source="TNJj3UPiWr4yUAPDPL0N-7" target="TNJj3UPiWr4yUAPDPL0N-41">
          <mxGeometry width="50" height="50" relative="1" as="geometry">
            <mxPoint x="835" y="785" as="sourcePoint" />
            <mxPoint x="755" y="735" as="targetPoint" />
          </mxGeometry>
        </mxCell>
        <mxCell id="TNJj3UPiWr4yUAPDPL0N-38" value="" style="endArrow=none;html=1;entryX=0.5;entryY=1;entryDx=0;entryDy=0;exitX=0.5;exitY=0;exitDx=0;exitDy=0;" edge="1" parent="1" source="TNJj3UPiWr4yUAPDPL0N-41" target="TNJj3UPiWr4yUAPDPL0N-3">
          <mxGeometry width="50" height="50" relative="1" as="geometry">
            <mxPoint x="735" y="575" as="sourcePoint" />
            <mxPoint x="785" y="525" as="targetPoint" />
          </mxGeometry>
        </mxCell>
        <mxCell id="TNJj3UPiWr4yUAPDPL0N-39" value="" style="endArrow=none;html=1;exitX=1;exitY=0.5;exitDx=0;exitDy=0;entryX=0;entryY=0.5;entryDx=0;entryDy=0;" edge="1" parent="1" source="TNJj3UPiWr4yUAPDPL0N-43" target="TNJj3UPiWr4yUAPDPL0N-6">
          <mxGeometry width="50" height="50" relative="1" as="geometry">
            <mxPoint x="530" y="180" as="sourcePoint" />
            <mxPoint x="580" y="130" as="targetPoint" />
          </mxGeometry>
        </mxCell>
        <mxCell id="TNJj3UPiWr4yUAPDPL0N-40" value="群组名" style="ellipse;whiteSpace=wrap;html=1;" vertex="1" parent="1">
          <mxGeometry x="975" y="695" width="90" height="50" as="geometry" />
        </mxCell>
        <mxCell id="TNJj3UPiWr4yUAPDPL0N-42" style="edgeStyle=orthogonalEdgeStyle;rounded=0;orthogonalLoop=1;jettySize=auto;html=1;exitX=1;exitY=0.5;exitDx=0;exitDy=0;entryX=0;entryY=0.5;entryDx=0;entryDy=0;" edge="1" parent="1" source="TNJj3UPiWr4yUAPDPL0N-41" target="TNJj3UPiWr4yUAPDPL0N-40">
          <mxGeometry relative="1" as="geometry" />
        </mxCell>
        <mxCell id="TNJj3UPiWr4yUAPDPL0N-41" value="归属" style="rhombus;whiteSpace=wrap;html=1;" vertex="1" parent="1">
          <mxGeometry x="795" y="690" width="80" height="60" as="geometry" />
        </mxCell>
        <mxCell id="TNJj3UPiWr4yUAPDPL0N-56" style="edgeStyle=orthogonalEdgeStyle;rounded=0;orthogonalLoop=1;jettySize=auto;html=1;exitX=0.5;exitY=0;exitDx=0;exitDy=0;" edge="1" parent="1" source="TNJj3UPiWr4yUAPDPL0N-43">
          <mxGeometry relative="1" as="geometry">
            <mxPoint x="490.41176470588243" y="130" as="targetPoint" />
          </mxGeometry>
        </mxCell>
        <mxCell id="TNJj3UPiWr4yUAPDPL0N-43" value="涉及" style="rhombus;whiteSpace=wrap;html=1;" vertex="1" parent="1">
          <mxGeometry x="450" y="170" width="80" height="60" as="geometry" />
        </mxCell>
        <mxCell id="TNJj3UPiWr4yUAPDPL0N-55" style="edgeStyle=orthogonalEdgeStyle;rounded=0;orthogonalLoop=1;jettySize=auto;html=1;exitX=0.5;exitY=1;exitDx=0;exitDy=0;entryX=0.5;entryY=0;entryDx=0;entryDy=0;" edge="1" parent="1" source="TNJj3UPiWr4yUAPDPL0N-44" target="TNJj3UPiWr4yUAPDPL0N-54">
          <mxGeometry relative="1" as="geometry">
            <mxPoint x="495.11764705882365" y="885" as="targetPoint" />
          </mxGeometry>
        </mxCell>
        <mxCell id="TNJj3UPiWr4yUAPDPL0N-44" value="告警通知" style="rhombus;whiteSpace=wrap;html=1;" vertex="1" parent="1">
          <mxGeometry x="455" y="785" width="80" height="60" as="geometry" />
        </mxCell>
        <mxCell id="TNJj3UPiWr4yUAPDPL0N-46" value="" style="endArrow=none;html=1;exitX=1;exitY=0.5;exitDx=0;exitDy=0;entryX=0;entryY=0.5;entryDx=0;entryDy=0;" edge="1" parent="1" source="TNJj3UPiWr4yUAPDPL0N-4" target="TNJj3UPiWr4yUAPDPL0N-44">
          <mxGeometry width="50" height="50" relative="1" as="geometry">
            <mxPoint x="180" y="675" as="sourcePoint" />
            <mxPoint x="450" y="815" as="targetPoint" />
          </mxGeometry>
        </mxCell>
        <mxCell id="TNJj3UPiWr4yUAPDPL0N-47" value="" style="endArrow=none;html=1;entryX=0;entryY=0.5;entryDx=0;entryDy=0;exitX=1;exitY=0.5;exitDx=0;exitDy=0;" edge="1" parent="1" source="TNJj3UPiWr4yUAPDPL0N-44" target="TNJj3UPiWr4yUAPDPL0N-7">
          <mxGeometry width="50" height="50" relative="1" as="geometry">
            <mxPoint x="190" y="805" as="sourcePoint" />
            <mxPoint x="240" y="755" as="targetPoint" />
          </mxGeometry>
        </mxCell>
        <mxCell id="TNJj3UPiWr4yUAPDPL0N-48" value="n" style="text;html=1;align=center;verticalAlign=middle;resizable=0;points=[];autosize=1;strokeColor=none;" vertex="1" parent="1">
          <mxGeometry x="240" y="180" width="20" height="20" as="geometry" />
        </mxCell>
        <mxCell id="TNJj3UPiWr4yUAPDPL0N-49" value="n" style="text;html=1;align=center;verticalAlign=middle;resizable=0;points=[];autosize=1;strokeColor=none;" vertex="1" parent="1">
          <mxGeometry x="755" y="180" width="20" height="20" as="geometry" />
        </mxCell>
        <mxCell id="TNJj3UPiWr4yUAPDPL0N-50" value="n" style="text;html=1;align=center;verticalAlign=middle;resizable=0;points=[];autosize=1;strokeColor=none;" vertex="1" parent="1">
          <mxGeometry x="240" y="795" width="20" height="20" as="geometry" />
        </mxCell>
        <mxCell id="TNJj3UPiWr4yUAPDPL0N-51" value="n" style="text;html=1;align=center;verticalAlign=middle;resizable=0;points=[];autosize=1;strokeColor=none;" vertex="1" parent="1">
          <mxGeometry x="765" y="795" width="20" height="20" as="geometry" />
        </mxCell>
        <mxCell id="TNJj3UPiWr4yUAPDPL0N-52" value="n" style="text;html=1;align=center;verticalAlign=middle;resizable=0;points=[];autosize=1;strokeColor=none;" vertex="1" parent="1">
          <mxGeometry x="835" y="775" width="20" height="20" as="geometry" />
        </mxCell>
        <mxCell id="TNJj3UPiWr4yUAPDPL0N-53" value="1&lt;br&gt;" style="text;html=1;align=center;verticalAlign=middle;resizable=0;points=[];autosize=1;strokeColor=none;" vertex="1" parent="1">
          <mxGeometry x="835" y="480" width="20" height="20" as="geometry" />
        </mxCell>
        <mxCell id="TNJj3UPiWr4yUAPDPL0N-54" value="UserIds" style="ellipse;whiteSpace=wrap;html=1;" vertex="1" parent="1">
          <mxGeometry x="450" y="895" width="90" height="50" as="geometry" />
        </mxCell>
        <mxCell id="TNJj3UPiWr4yUAPDPL0N-57" value="系统Ids" style="ellipse;whiteSpace=wrap;html=1;" vertex="1" parent="1">
          <mxGeometry x="445" y="80" width="90" height="50" as="geometry" />
        </mxCell>
        <mxCell id="TNJj3UPiWr4yUAPDPL0N-58" value="运行指标&lt;br&gt;加固checkList&lt;br&gt;风险登记" style="rounded=0;whiteSpace=wrap;html=1;" vertex="1" parent="1">
          <mxGeometry x="450" y="670" width="100" height="50" as="geometry" />
        </mxCell>
        <mxCell id="TNJj3UPiWr4yUAPDPL0N-59" value="拥有" style="rhombus;whiteSpace=wrap;html=1;" vertex="1" parent="1">
          <mxGeometry x="280" y="530" width="80" height="60" as="geometry" />
        </mxCell>
        <mxCell id="TNJj3UPiWr4yUAPDPL0N-61" value="" style="endArrow=none;html=1;entryX=0.75;entryY=1;entryDx=0;entryDy=0;exitX=0;exitY=0.5;exitDx=0;exitDy=0;" edge="1" parent="1" source="TNJj3UPiWr4yUAPDPL0N-59" target="TNJj3UPiWr4yUAPDPL0N-1">
          <mxGeometry width="50" height="50" relative="1" as="geometry">
            <mxPoint x="230" y="550" as="sourcePoint" />
            <mxPoint x="150" y="560" as="targetPoint" />
          </mxGeometry>
        </mxCell>
        <mxCell id="TNJj3UPiWr4yUAPDPL0N-64" value="" style="endArrow=none;html=1;entryX=1;entryY=0.5;entryDx=0;entryDy=0;exitX=0;exitY=0.5;exitDx=0;exitDy=0;" edge="1" parent="1" source="TNJj3UPiWr4yUAPDPL0N-58" target="TNJj3UPiWr4yUAPDPL0N-59">
          <mxGeometry width="50" height="50" relative="1" as="geometry">
            <mxPoint x="210" y="640" as="sourcePoint" />
            <mxPoint x="260" y="590" as="targetPoint" />
          </mxGeometry>
        </mxCell>
        <mxCell id="TNJj3UPiWr4yUAPDPL0N-66" value="n" style="text;html=1;align=center;verticalAlign=middle;resizable=0;points=[];autosize=1;strokeColor=none;" vertex="1" parent="1">
          <mxGeometry x="230" y="490" width="20" height="20" as="geometry" />
        </mxCell>
        <mxCell id="TNJj3UPiWr4yUAPDPL0N-67" value="n" style="text;html=1;align=center;verticalAlign=middle;resizable=0;points=[];autosize=1;strokeColor=none;" vertex="1" parent="1">
          <mxGeometry x="430" y="640" width="20" height="20" as="geometry" />
        </mxCell>
        <mxCell id="TNJj3UPiWr4yUAPDPL0N-72" style="edgeStyle=orthogonalEdgeStyle;rounded=0;orthogonalLoop=1;jettySize=auto;html=1;exitX=0.5;exitY=1;exitDx=0;exitDy=0;entryX=0.5;entryY=0;entryDx=0;entryDy=0;" edge="1" parent="1" source="TNJj3UPiWr4yUAPDPL0N-68" target="TNJj3UPiWr4yUAPDPL0N-71">
          <mxGeometry relative="1" as="geometry" />
        </mxCell>
        <mxCell id="TNJj3UPiWr4yUAPDPL0N-68" value="属于" style="rhombus;whiteSpace=wrap;html=1;" vertex="1" parent="1">
          <mxGeometry x="665" y="560" width="80" height="60" as="geometry" />
        </mxCell>
        <mxCell id="TNJj3UPiWr4yUAPDPL0N-69" value="" style="endArrow=none;html=1;exitX=1;exitY=0.5;exitDx=0;exitDy=0;" edge="1" parent="1" source="TNJj3UPiWr4yUAPDPL0N-68">
          <mxGeometry width="50" height="50" relative="1" as="geometry">
            <mxPoint x="765" y="530" as="sourcePoint" />
            <mxPoint x="815" y="480" as="targetPoint" />
          </mxGeometry>
        </mxCell>
        <mxCell id="TNJj3UPiWr4yUAPDPL0N-70" value="" style="endArrow=none;html=1;exitX=1;exitY=0.6;exitDx=0;exitDy=0;exitPerimeter=0;entryX=0;entryY=0.5;entryDx=0;entryDy=0;" edge="1" parent="1" source="TNJj3UPiWr4yUAPDPL0N-58" target="TNJj3UPiWr4yUAPDPL0N-68">
          <mxGeometry width="50" height="50" relative="1" as="geometry">
            <mxPoint x="560" y="630" as="sourcePoint" />
            <mxPoint x="610" y="580" as="targetPoint" />
          </mxGeometry>
        </mxCell>
        <mxCell id="TNJj3UPiWr4yUAPDPL0N-71" value="群组名" style="ellipse;whiteSpace=wrap;html=1;" vertex="1" parent="1">
          <mxGeometry x="660" y="680" width="90" height="50" as="geometry" />
        </mxCell>
        <mxCell id="TNJj3UPiWr4yUAPDPL0N-73" value="n" style="text;html=1;align=center;verticalAlign=middle;resizable=0;points=[];autosize=1;strokeColor=none;" vertex="1" parent="1">
          <mxGeometry x="550" y="640" width="20" height="20" as="geometry" />
        </mxCell>
        <mxCell id="TNJj3UPiWr4yUAPDPL0N-74" value="1" style="text;html=1;align=center;verticalAlign=middle;resizable=0;points=[];autosize=1;strokeColor=none;" vertex="1" parent="1">
          <mxGeometry x="765" y="490" width="20" height="20" as="geometry" />
        </mxCell>
      </root>
    </mxGraphModel>
  </diagram>
</mxfile>
